<svg xmlns="http://www.w3.org/2000/svg" width="980" height="560">
<rect width="100%" height="100%" fill="white"/>
<text x="490.0" y="42" text-anchor="middle" font-size="26" font-family="Helvetica, Arial, sans-serif">I/O Engine Comparison (Latency)</text>
<line x1="90" y1="450" x2="930" y2="450" stroke="#333" stroke-width="2"/>
<line x1="90" y1="80" x2="90" y2="450" stroke="#333" stroke-width="2"/>
<line x1="90" y1="450.0" x2="930" y2="450.0" stroke="#EEE" stroke-width="1"/>
<text x="80" y="454.0" text-anchor="end" font-size="14" font-family="Helvetica, Arial, sans-serif" fill="#555">0.0</text>
<line x1="90" y1="376.0" x2="930" y2="376.0" stroke="#EEE" stroke-width="1"/>
<text x="80" y="380.0" text-anchor="end" font-size="14" font-family="Helvetica, Arial, sans-serif" fill="#555">5.3</text>
<line x1="90" y1="302.0" x2="930" y2="302.0" stroke="#EEE" stroke-width="1"/>
<text x="80" y="306.0" text-anchor="end" font-size="14" font-family="Helvetica, Arial, sans-serif" fill="#555">10.6</text>
<line x1="90" y1="228.0" x2="930" y2="228.0" stroke="#EEE" stroke-width="1"/>
<text x="80" y="232.0" text-anchor="end" font-size="14" font-family="Helvetica, Arial, sans-serif" fill="#555">15.8</text>
<line x1="90" y1="154.0" x2="930" y2="154.0" stroke="#EEE" stroke-width="1"/>
<text x="80" y="158.0" text-anchor="end" font-size="14" font-family="Helvetica, Arial, sans-serif" fill="#555">21.1</text>
<line x1="90" y1="80.0" x2="930" y2="80.0" stroke="#EEE" stroke-width="1"/>
<text x="80" y="84.0" text-anchor="end" font-size="14" font-family="Helvetica, Arial, sans-serif" fill="#555">26.4</text>
<rect x="143.2" y="113.6" width="173.6" height="336.4" fill="#059669" rx="5" ry="5"/>
<text x="230.0" y="105.6" text-anchor="middle" font-size="14" font-family="Helvetica, Arial, sans-serif">24.00</text>
<text x="230.0" y="474" text-anchor="middle" font-size="14" font-family="Helvetica, Arial, sans-serif">POSIX</text>
<rect x="423.2" y="309.8" width="173.6" height="140.2" fill="#059669" rx="5" ry="5"/>
<text x="510.0" y="301.8" text-anchor="middle" font-size="14" font-family="Helvetica, Arial, sans-serif">10.00</text>
<text x="510.0" y="474" text-anchor="middle" font-size="14" font-family="Helvetica, Arial, sans-serif">CPU Offload</text>
<rect x="703.2" y="422.0" width="173.6" height="28.0" fill="#059669" rx="5" ry="5"/>
<text x="790.0" y="414.0" text-anchor="middle" font-size="14" font-family="Helvetica, Arial, sans-serif">2.00</text>
<text x="790.0" y="474" text-anchor="middle" font-size="14" font-family="Helvetica, Arial, sans-serif">GDS</text>
<text x="28" y="265.0" text-anchor="middle" font-size="15" font-family="Helvetica, Arial, sans-serif" fill="#333" transform="rotate(-90 28,280)">Latency (s)</text>
</svg>